<svg width="1296" height="295" viewBox="0 0 1296 295" fill="none" xmlns="http://www.w3.org/2000/svg">
<g filter="url(#filter0_d_442_174)">
<path fill-rule="evenodd" clip-rule="evenodd" d="M73.6751 23H1222.32C1250.31 23 1273 27.5813 1273 33.2329V261.767C1273 267.419 1250.31 272 1222.32 272H73.6751C45.6875 272 23 267.419 23 261.767V33.2329C23 27.5813 45.6875 23 73.6751 23Z" fill="#6E7891" fill-opacity="0.01"/>
<path d="M73.6751 24H1222.32C1236.27 24 1248.87 25.1423 1257.96 26.9773C1262.51 27.8965 1266.13 28.9794 1268.59 30.1522C1269.82 30.7397 1270.7 31.3252 1271.27 31.8824C1271.83 32.4375 1272 32.8866 1272 33.2329V261.767C1272 262.113 1271.83 262.562 1271.27 263.118C1270.7 263.675 1269.82 264.26 1268.59 264.848C1266.13 266.021 1262.51 267.103 1257.96 268.023C1248.87 269.858 1236.27 271 1222.32 271H73.6751C59.727 271 47.1277 269.858 38.0401 268.023C33.4881 267.103 29.8695 266.021 27.4131 264.848C26.1825 264.26 25.2966 263.675 24.7319 263.118C24.1694 262.562 24 262.113 24 261.767V33.2329C24 32.8865 24.1694 32.4375 24.7319 31.8824C25.2966 31.3252 26.1825 30.7397 27.4131 30.1522C29.8695 28.9794 33.4881 27.8965 38.0401 26.9773C47.1277 25.1423 59.727 24 73.6751 24Z" stroke="#F7F7F7" stroke-width="2"/>
</g>
<defs>
<filter id="filter0_d_442_174" x="0" y="0" width="1296" height="295" filterUnits="userSpaceOnUse" color-interpolation-filters="sRGB">
<feFlood flood-opacity="0" result="BackgroundImageFix"/>
<feColorMatrix in="SourceAlpha" type="matrix" values="0 0 0 0 0 0 0 0 0 0 0 0 0 0 0 0 0 0 127 0" result="hardAlpha"/>
<feOffset/>
<feGaussianBlur stdDeviation="11.5"/>
<feColorMatrix type="matrix" values="0 0 0 0 0.0392157 0 0 0 0 0.180392 0 0 0 0 0.447059 0 0 0 0.0784314 0"/>
<feBlend mode="normal" in2="BackgroundImageFix" result="effect1_dropShadow_442_174"/>
<feBlend mode="normal" in="SourceGraphic" in2="effect1_dropShadow_442_174" result="shape"/>
</filter>
</defs>
</svg>
