<svg width="17" height="16" viewBox="0 0 17 16" fill="none" xmlns="http://www.w3.org/2000/svg">
<path d="M10.478 5.85606C10.478 5.22672 10.254 4.68806 9.80601 4.24006C9.35801 3.79206 8.81935 3.56806 8.19001 3.56806C7.56068 3.56806 7.02201 3.79206 6.57401 4.24006C6.12601 4.68806 5.90201 5.22672 5.90201 5.85606C5.90201 6.48539 6.12601 7.02406 6.57401 7.47206C7.02201 7.92006 7.56068 8.14406 8.19001 8.14406C8.81935 8.14406 9.35801 7.92006 9.80601 7.47206C10.254 7.02406 10.478 6.48539 10.478 5.85606ZM12.75 5.85606C12.75 6.50672 12.654 7.04006 12.462 7.45606L9.21401 14.3681C9.11801 14.5601 8.97401 14.7147 8.78201 14.8321C8.59001 14.9494 8.39268 15.0081 8.19001 15.0081C7.98735 15.0081 7.78468 14.9494 7.58201 14.8321C7.37935 14.7147 7.24068 14.5601 7.16601 14.3681L3.90201 7.45606C3.71001 7.04006 3.61401 6.50672 3.61401 5.85606C3.61401 4.59739 4.06201 3.52006 4.95801 2.62406C5.85401 1.72806 6.93135 1.28006 8.19001 1.28006C9.44868 1.28006 10.526 1.72806 11.422 2.62406C12.318 3.52006 12.7607 4.59739 12.75 5.85606Z" fill="#0096D6"/>
</svg>
